<svg width="402" height="511" viewBox="0 0 402 511" fill="none" xmlns="http://www.w3.org/2000/svg">
<path d="M7.99998 229L7.99998 416C7.99998 460.183 43.8172 496 88 496L314 496C358.183 496 394 460.183 394 416L394 229" stroke="#92827F" stroke-width="15"/>
<path d="M323.5 22H75.5C47.8858 22 25.5 44.3858 25.5 72V405.5C25.5 433.114 47.8858 455.5 75.5 455.5H323.5C351.114 455.5 373.5 433.114 373.5 405.5V72C373.5 44.3858 351.114 22 323.5 22Z" stroke="#AC9D9A" stroke-width="15"/>
<path d="M200.5 0V478" stroke="#AC9D9A" stroke-width="15"/>
<path d="M294 0.5V478.5" stroke="#AC9D9A" stroke-width="15"/>
<path d="M105 0.5V478.5" stroke="#AC9D9A" stroke-width="15"/>
<path d="M7 237L393 237" stroke="#AC9D9A" stroke-width="15"/>
<path d="M7 144L393 144" stroke="#AC9D9A" stroke-width="15"/>
<path d="M8 333L394 333" stroke="#AC9D9A" stroke-width="15"/>
<path d="M7.99998 229L7.99998 416C7.99998 460.183 43.8172 496 88 496L314 496C358.183 496 394 460.183 394 416L394 229" stroke="#92827F" stroke-width="15"/>
<rect x="138" y="481" width="126" height="30" fill="#CD2B08"/>
<path d="M201 75V405" stroke="#92827F" stroke-width="15"/>
<path d="M294 75V405" stroke="#92827F" stroke-width="15"/>
<path d="M105 75V405" stroke="#92827F" stroke-width="15"/>
<path d="M67 237L329 237" stroke="#92827F" stroke-width="15"/>
<path d="M67 144L329 144" stroke="#92827F" stroke-width="15"/>
<path d="M68 333L330 333" stroke="#92827F" stroke-width="15"/>
</svg>
