<svg width="390" height="476" viewBox="0 0 390 476" fill="none" xmlns="http://www.w3.org/2000/svg">
<path d="M7.969 213.315L7.969 382.027C7.969 426.21 43.7862 462.027 87.9689 462.027L302 462.027C346.183 462.027 382 426.21 382 382.027L382 213.315" stroke="#92827F" stroke-width="15"/>
<path d="M312.136 20.4932H74.9264C47.3121 20.4932 24.9264 42.8789 24.9264 70.4931V374.301C24.9264 401.916 47.3122 424.301 74.9264 424.301H312.136C339.75 424.301 362.136 401.916 362.136 374.301V70.4932C362.136 42.8789 339.75 20.4932 312.136 20.4932Z" stroke="#AC9D9A" stroke-width="15"/>
<path d="M194.5 0V445.26" stroke="#AC9D9A" stroke-width="15"/>
<path d="M285.101 0.465759V445.726" stroke="#AC9D9A" stroke-width="15"/>
<path d="M101.961 0.465759V445.726" stroke="#AC9D9A" stroke-width="15"/>
<path d="M7 220.767L381.031 220.767" stroke="#AC9D9A" stroke-width="15"/>
<path d="M7 134.137L381.031 134.137" stroke="#AC9D9A" stroke-width="15"/>
<path d="M7.96899 310.192L382 310.192" stroke="#AC9D9A" stroke-width="15"/>
<path d="M7.969 213.315L7.969 382.027C7.969 426.21 43.7862 462.027 87.9689 462.027L302 462.027C346.183 462.027 382 426.21 382 382.027L382 213.315" stroke="#92827F" stroke-width="15"/>
<rect x="133.938" y="448.055" width="122.093" height="27.9452" fill="#CD2B08"/>
<path d="M194.984 69.863V377.26" stroke="#92827F" stroke-width="15"/>
<path d="M285.101 69.863V377.26" stroke="#92827F" stroke-width="15"/>
<path d="M101.961 69.863V377.26" stroke="#92827F" stroke-width="15"/>
<path d="M65.1396 220.767L319.016 220.767" stroke="#92827F" stroke-width="15"/>
<path d="M65.1396 134.137L319.016 134.137" stroke="#92827F" stroke-width="15"/>
<path d="M66.1085 310.192L319.985 310.192" stroke="#92827F" stroke-width="15"/>
<ellipse cx="19.1753" cy="20.932" rx="19.1753" ry="20.932" transform="matrix(0.987567 -0.157197 0.157636 0.987497 252.117 268.195)" fill="#5D855C"/>
<ellipse cx="28.1238" cy="27.4732" rx="28.1238" ry="27.4732" transform="matrix(0.987567 -0.157197 0.157636 0.987497 274.379 277.899)" fill="#5D855C"/>
<ellipse cx="28.1238" cy="27.4732" rx="28.1238" ry="27.4732" transform="matrix(0.987567 -0.157197 0.157636 0.987497 278.916 306.321)" fill="#5D855C"/>
<ellipse cx="28.1238" cy="27.4732" rx="28.1238" ry="27.4732" transform="matrix(0.987567 -0.157197 0.157636 0.987497 262.841 335.374)" fill="#5D855C"/>
<ellipse cx="28.1238" cy="27.4732" rx="28.1238" ry="27.4732" transform="matrix(0.987567 -0.157197 0.157636 0.987497 239.804 304.598)" fill="#5D855C"/>
<ellipse cx="28.1238" cy="27.4732" rx="28.1238" ry="27.4732" transform="matrix(0.987567 -0.157197 0.157636 0.987497 218.83 286.741)" fill="#5D855C"/>
<rect width="50.6604" height="23.4269" transform="matrix(0.786468 -0.617325 0.602375 0.798444 222.148 356.185)" fill="#87AF86"/>
<ellipse cx="33.7532" cy="36.1231" rx="33.7532" ry="36.1231" transform="matrix(-0.370924 -0.928663 0.929028 -0.370009 72.2928 305.209)" fill="#FF3D00"/>
<ellipse cx="25.524" cy="27.3161" rx="25.524" ry="27.3161" transform="matrix(-0.370924 -0.928663 0.929028 -0.370009 133.983 346.874)" fill="#F8693C"/>
<path d="M82.6388 237.669L80.0516 244.325L84.482 247.386L78.4526 248.439L75.8655 255.095L74.7263 249.09L68.6969 250.143L74.0223 245.378L72.8831 239.373L77.3135 242.434L82.6388 237.669Z" fill="#5D855C"/>
<path d="M157.938 299.387L162.161 305.148L167.13 303.068L164.771 308.709L168.995 314.47L163.314 312.194L160.955 317.835L159.803 310.788L154.122 308.513L159.09 306.433L157.938 299.387Z" fill="#5D855C"/>
</svg>
