<svg width="251" height="98" viewBox="0 0 251 98" fill="none" xmlns="http://www.w3.org/2000/svg">
<rect width="251" height="98" rx="14" fill="#A1CDE6"/>
<path d="M110.941 64H92.9727V61.3828C95.3555 59.3255 97.3737 57.4635 99.0273 55.7969C100.681 54.1302 102.016 52.6068 103.031 51.2266C104.06 49.8464 104.809 48.5573 105.277 47.3594C105.759 46.1484 106 44.9766 106 43.8438C106 42.6589 105.779 41.6172 105.336 40.7188C104.893 39.8203 104.268 39.1237 103.461 38.6289C102.667 38.1341 101.749 37.8867 100.707 37.8867C99.5091 37.8867 98.3633 38.2318 97.2695 38.9219C96.1758 39.599 95.2708 40.5365 94.5547 41.7344L92.2695 39.0391C93.3242 37.4766 94.6589 36.2656 96.2734 35.4062C97.901 34.5469 99.6328 34.1172 101.469 34.1172C103.174 34.1172 104.698 34.4948 106.039 35.25C107.393 35.9922 108.454 37.0273 109.223 38.3555C110.004 39.6836 110.395 41.2331 110.395 43.0039C110.395 44.3711 110.147 45.7708 109.652 47.2031C109.158 48.6224 108.422 50.0612 107.445 51.5195C106.482 52.9648 105.284 54.4167 103.852 55.875C102.432 57.3333 100.805 58.7852 98.9688 60.2305H110.941V64ZM135.062 64H131.059V53.3945C131.059 51.6628 130.583 50.2826 129.633 49.2539C128.695 48.2253 127.432 47.7109 125.844 47.7109C124.203 47.7109 122.882 48.2578 121.879 49.3516C120.876 50.4453 120.375 51.8971 120.375 53.707V64H116.371V44.4688H119.75L119.887 47.6133C120.603 46.4674 121.54 45.5951 122.699 44.9961C123.858 44.3841 125.219 44.0781 126.781 44.0781C129.346 44.0781 131.365 44.8529 132.836 46.4023C134.32 47.9518 135.062 50.0872 135.062 52.8086V64ZM159.73 64H156.195L155.98 61.207C155.095 62.1966 154.027 62.9779 152.777 63.5508C151.54 64.1107 150.18 64.3906 148.695 64.3906C146.82 64.3906 145.141 63.9479 143.656 63.0625C142.172 62.1771 141 60.9661 140.141 59.4297C139.294 57.8932 138.871 56.1615 138.871 54.2344C138.871 52.2943 139.294 50.5625 140.141 49.0391C141 47.5026 142.172 46.2917 143.656 45.4062C145.141 44.5208 146.82 44.0781 148.695 44.0781C150.102 44.0781 151.404 44.332 152.602 44.8398C153.812 45.3477 154.854 46.0573 155.727 46.9688V34.7031H159.73V64ZM149.359 60.7969C150.544 60.7969 151.612 60.5234 152.562 59.9766C153.526 59.4297 154.294 58.6875 154.867 57.75C155.44 56.8125 155.727 55.7448 155.727 54.5469V53.8828C155.727 52.6849 155.44 51.6172 154.867 50.6797C154.294 49.7422 153.526 49.0065 152.562 48.4727C151.612 47.9388 150.544 47.6719 149.359 47.6719C148.148 47.6719 147.061 47.9583 146.098 48.5312C145.134 49.1042 144.372 49.8854 143.812 50.875C143.253 51.8516 142.973 52.9648 142.973 54.2148C142.973 55.4648 143.253 56.5846 143.812 57.5742C144.372 58.5638 145.134 59.3516 146.098 59.9375C147.061 60.5104 148.148 60.7969 149.359 60.7969Z" fill="black"/>
</svg>
