<svg width="252" height="98" viewBox="0 0 252 98" fill="none" xmlns="http://www.w3.org/2000/svg">
<rect width="252" height="98" rx="14" fill="#A1CDE6"/>
<path d="M114.117 64H109.82V57.3398H95.2891V54L109.84 34.7031H114.117V53.5703H117.691V57.3398H114.117V64ZM99.7422 53.5703H109.82V40.1914L99.7422 53.5703ZM133.883 63.5117C132.516 64.0977 131.194 64.3906 129.918 64.3906C128.642 64.3906 127.522 64.1172 126.559 63.5703C125.608 63.0234 124.859 62.2552 124.312 61.2656C123.779 60.263 123.512 59.1107 123.512 57.8086V48.043H120.094V44.4688H123.707V39.5859H127.516V44.4688H133.219V48.043H127.516V57.0664C127.516 58.2122 127.822 59.1237 128.434 59.8008C129.059 60.4648 129.859 60.7969 130.836 60.7969C131.656 60.7969 132.47 60.5495 133.277 60.0547L133.883 63.5117ZM137.828 64V34.7031H141.832V47.1836C143.277 45.1133 145.471 44.0781 148.414 44.0781C150.953 44.0781 152.939 44.8464 154.371 46.3828C155.803 47.9193 156.52 50.0612 156.52 52.8086V64H152.516V53.7852C152.516 51.8451 152.047 50.3411 151.109 49.2734C150.185 48.2057 148.889 47.6719 147.223 47.6719C145.543 47.6719 144.221 48.2188 143.258 49.3125C142.307 50.3932 141.832 51.8841 141.832 53.7852V64H137.828Z" fill="black"/>
</svg>
