<svg width="252" height="98" viewBox="0 0 252 98" fill="none" xmlns="http://www.w3.org/2000/svg">
<rect width="252" height="98" rx="14" fill="#A1CDE6"/>
<path d="M114.391 64H110.094V38.9414L104.84 40.8555L103.492 37.3984L110.934 34.7031H114.391V64ZM119.195 62.3008L120.172 58.707C120.615 59.1497 121.142 59.5404 121.754 59.8789C122.379 60.2174 123.036 60.4844 123.727 60.6797C124.43 60.862 125.12 60.9531 125.797 60.9531C126.865 60.9531 127.724 60.7253 128.375 60.2695C129.026 59.8138 129.352 59.2083 129.352 58.4531C129.352 57.8932 129.169 57.431 128.805 57.0664C128.453 56.6888 127.978 56.3633 127.379 56.0898C126.793 55.8164 126.161 55.5495 125.484 55.2891C124.612 54.9635 123.74 54.5859 122.867 54.1562C122.008 53.7266 121.285 53.1536 120.699 52.4375C120.113 51.7214 119.82 50.7773 119.82 49.6055C119.82 48.4857 120.107 47.5156 120.68 46.6953C121.253 45.862 122.053 45.2174 123.082 44.7617C124.111 44.306 125.296 44.0781 126.637 44.0781C128.72 44.0781 130.784 44.599 132.828 45.6406L131.656 49.0586C131.24 48.7591 130.745 48.4922 130.172 48.2578C129.599 48.0234 129.013 47.8411 128.414 47.7109C127.815 47.5677 127.262 47.4961 126.754 47.4961C125.908 47.4961 125.224 47.6849 124.703 48.0625C124.195 48.4401 123.941 48.9479 123.941 49.5859C123.941 49.9766 124.065 50.3346 124.312 50.6602C124.56 50.9727 124.951 51.2852 125.484 51.5977C126.031 51.8971 126.767 52.2357 127.691 52.6133C128.577 52.9648 129.462 53.3685 130.348 53.8242C131.233 54.2799 131.969 54.8724 132.555 55.6016C133.154 56.3307 133.453 57.2878 133.453 58.4727C133.453 59.6445 133.141 60.6797 132.516 61.5781C131.891 62.4635 131.018 63.1536 129.898 63.6484C128.792 64.1432 127.503 64.3906 126.031 64.3906C123.596 64.3906 121.318 63.694 119.195 62.3008ZM149.625 63.5117C148.258 64.0977 146.936 64.3906 145.66 64.3906C144.384 64.3906 143.264 64.1172 142.301 63.5703C141.35 63.0234 140.602 62.2552 140.055 61.2656C139.521 60.263 139.254 59.1107 139.254 57.8086V48.043H135.836V44.4688H139.449V39.5859H143.258V44.4688H148.961V48.043H143.258V57.0664C143.258 58.2122 143.564 59.1237 144.176 59.8008C144.801 60.4648 145.602 60.7969 146.578 60.7969C147.398 60.7969 148.212 60.5495 149.02 60.0547L149.625 63.5117Z" fill="black"/>
</svg>
