<svg width="251" height="98" viewBox="0 0 251 98" fill="none" xmlns="http://www.w3.org/2000/svg">
<rect width="251" height="98" rx="14" fill="#A1CDE6"/>
<path d="M96.0781 61.3242L97.8164 58.1602C98.8841 59.0326 99.9648 59.6966 101.059 60.1523C102.165 60.5951 103.272 60.8164 104.379 60.8164C105.512 60.8164 106.508 60.5951 107.367 60.1523C108.24 59.7096 108.917 59.0977 109.398 58.3164C109.893 57.5221 110.141 56.6172 110.141 55.6016C110.141 53.9349 109.483 52.6393 108.168 51.7148C106.866 50.7773 105.056 50.3086 102.738 50.3086H101.645V47.2422H102.738C103.988 47.2422 105.108 47.0273 106.098 46.5977C107.087 46.1549 107.862 45.556 108.422 44.8008C108.995 44.0326 109.281 43.1667 109.281 42.2031C109.281 41.3698 109.066 40.6276 108.637 39.9766C108.22 39.3255 107.641 38.8177 106.898 38.4531C106.169 38.0755 105.329 37.8867 104.379 37.8867C103.441 37.8867 102.491 38.0885 101.527 38.4922C100.564 38.8828 99.6133 39.4622 98.6758 40.2305L96.7031 37.2422C97.8099 36.2396 99.0534 35.4714 100.434 34.9375C101.814 34.3906 103.253 34.1172 104.75 34.1172C106.417 34.1172 107.895 34.4362 109.184 35.0742C110.473 35.6992 111.488 36.5586 112.23 37.6523C112.986 38.7461 113.363 40.0026 113.363 41.4219C113.363 43.0495 112.868 44.5078 111.879 45.7969C110.889 47.0859 109.607 48.0365 108.031 48.6484C110.062 49.1432 111.664 50.0417 112.836 51.3438C114.021 52.6458 114.613 54.2474 114.613 56.1484C114.613 57.776 114.184 59.2279 113.324 60.5039C112.465 61.7669 111.293 62.763 109.809 63.4922C108.324 64.2214 106.632 64.5859 104.73 64.5859C103.116 64.5859 101.573 64.306 100.102 63.7461C98.6302 63.1862 97.2891 62.3789 96.0781 61.3242ZM123.441 64H119.438V44.4688H122.934L123.09 48.1797C123.767 46.8906 124.698 45.888 125.883 45.1719C127.081 44.4427 128.454 44.0781 130.004 44.0781C130.382 44.0781 130.759 44.1042 131.137 44.1562C131.527 44.1953 131.918 44.2604 132.309 44.3516L131.801 47.9648C131.046 47.7695 130.303 47.6719 129.574 47.6719C128.363 47.6719 127.296 47.9648 126.371 48.5508C125.447 49.1237 124.724 49.918 124.203 50.9336C123.695 51.9492 123.441 53.1211 123.441 54.4492V64ZM154.789 64H151.254L151.039 61.207C150.154 62.1966 149.086 62.9779 147.836 63.5508C146.599 64.1107 145.238 64.3906 143.754 64.3906C141.879 64.3906 140.199 63.9479 138.715 63.0625C137.23 62.1771 136.059 60.9661 135.199 59.4297C134.353 57.8932 133.93 56.1615 133.93 54.2344C133.93 52.2943 134.353 50.5625 135.199 49.0391C136.059 47.5026 137.23 46.2917 138.715 45.4062C140.199 44.5208 141.879 44.0781 143.754 44.0781C145.16 44.0781 146.462 44.332 147.66 44.8398C148.871 45.3477 149.913 46.0573 150.785 46.9688V34.7031H154.789V64ZM144.418 60.7969C145.603 60.7969 146.671 60.5234 147.621 59.9766C148.585 59.4297 149.353 58.6875 149.926 57.75C150.499 56.8125 150.785 55.7448 150.785 54.5469V53.8828C150.785 52.6849 150.499 51.6172 149.926 50.6797C149.353 49.7422 148.585 49.0065 147.621 48.4727C146.671 47.9388 145.603 47.6719 144.418 47.6719C143.207 47.6719 142.12 47.9583 141.156 48.5312C140.193 49.1042 139.431 49.8854 138.871 50.875C138.311 51.8516 138.031 52.9648 138.031 54.2148C138.031 55.4648 138.311 56.5846 138.871 57.5742C139.431 58.5638 140.193 59.3516 141.156 59.9375C142.12 60.5104 143.207 60.7969 144.418 60.7969Z" fill="black"/>
</svg>
