<svg width="1189" height="514" viewBox="0 0 1189 514" fill="none" xmlns="http://www.w3.org/2000/svg">
<rect y="2" width="202" height="428" fill="#EAD1C0"/>
<rect x="246" y="86" width="202" height="428" fill="#EAD1C0"/>
<rect x="492" y="2" width="203" height="428" fill="#EAD1C0"/>
<rect x="741" y="86" width="202" height="428" fill="#EAD1C0"/>
<rect x="987" y="2" width="202" height="428" fill="#EAD1C0"/>
<ellipse cx="44.4488" cy="54" rx="20" ry="19" fill="#FFB84E"/>
<ellipse cx="132.449" cy="125" rx="20" ry="19" fill="#FFB84E"/>
<ellipse cx="152.449" cy="212" rx="20" ry="19" fill="#FFB84E"/>
<ellipse cx="54.4488" cy="330" rx="20" ry="19" fill="#FFB84E"/>
<ellipse cx="57.4488" cy="204" rx="26" ry="27" fill="#FFB84E"/>
<ellipse cx="125.449" cy="62" rx="26" ry="27" fill="#FFB84E"/>
<ellipse cx="144.449" cy="374" rx="26" ry="27" fill="#FFB84E"/>
<ellipse cx="118.449" cy="284" rx="26" ry="27" fill="#FFB84E"/>
<ellipse cx="127.633" cy="388.177" rx="20" ry="19" transform="rotate(-171.506 127.633 388.177)" fill="#FFA826"/>
<ellipse cx="57.0358" cy="294.746" rx="20" ry="19" transform="rotate(-171.506 57.0358 294.746)" fill="#FFA826"/>
<ellipse cx="57.0358" cy="227.746" rx="20" ry="19" transform="rotate(-171.506 57.0358 227.746)" fill="#FFA826"/>
<ellipse cx="153.036" cy="105.746" rx="20" ry="19" transform="rotate(-171.506 153.036 105.746)" fill="#FFA826"/>
<ellipse cx="130.152" cy="242.544" rx="26" ry="27" transform="rotate(-171.506 130.152 242.544)" fill="#FFA826"/>
<ellipse cx="48.7029" cy="368.301" rx="26" ry="27" transform="rotate(-171.506 48.7029 368.301)" fill="#FFA826"/>
<ellipse cx="81.1516" cy="75.5442" rx="26" ry="27" transform="rotate(-171.506 81.1516 75.5442)" fill="#FFA826"/>
<ellipse cx="125.703" cy="262.967" rx="20" ry="19" transform="rotate(68.9298 125.703 262.967)" fill="#FF9900"/>
<ellipse cx="149.369" cy="328.494" rx="20" ry="19" transform="rotate(68.9298 149.369 328.494)" fill="#FF9900"/>
<ellipse cx="99.0145" cy="171.442" rx="26" ry="27" transform="rotate(68.9298 99.0145 171.442)" fill="#FF9900"/>
<ellipse cx="161.026" cy="192.721" rx="26" ry="27" transform="rotate(68.9298 161.026 192.721)" fill="#FF9900"/>
<ellipse cx="98.9908" cy="339.968" rx="26" ry="27" transform="rotate(68.9298 98.9908 339.968)" fill="#FF9900"/>
<ellipse cx="82.9909" cy="254.968" rx="26" ry="27" transform="rotate(68.9298 82.9909 254.968)" fill="#FF9900"/>
<ellipse cx="132.462" cy="156.255" rx="26" ry="27" transform="rotate(-102.576 132.462 156.255)" fill="#FFD89E"/>
<ellipse cx="60.1516" cy="134.544" rx="26" ry="27" transform="rotate(-171.506 60.1516 134.544)" fill="#FFA826"/>
<ellipse cx="297" cy="174" rx="7" ry="68" fill="#87AF86"/>
<ellipse cx="274.5" cy="169" rx="7.5" ry="63" fill="#5D855C"/>
<ellipse cx="341.5" cy="174" rx="7.5" ry="68" fill="#87AF86"/>
<ellipse cx="319.142" cy="169.189" rx="7.38309" ry="62.7562" transform="rotate(-6.52063 319.142 169.189)" fill="#87AF86"/>
<ellipse cx="390.5" cy="171" rx="7.5" ry="63" fill="#87AF86"/>
<ellipse cx="412.049" cy="170.544" rx="7.38309" ry="62.7562" transform="rotate(-6.52063 412.049 170.544)" fill="#87AF86"/>
<ellipse cx="365.655" cy="171.256" rx="7.38309" ry="62.7562" transform="rotate(2.02699 365.655 171.256)" fill="#5D855C"/>
<ellipse cx="298.5" cy="433" rx="7.5" ry="68" fill="#5D855C"/>
<ellipse cx="276.5" cy="428" rx="7.5" ry="63" fill="#87AF86"/>
<ellipse cx="341.291" cy="422.521" rx="7.38309" ry="67.8321" transform="rotate(-4.25812 341.291 422.521)" fill="#87AF86"/>
<ellipse cx="320.988" cy="428.029" rx="7.38309" ry="62.7562" transform="rotate(-6.52063 320.988 428.029)" fill="#87AF86"/>
<ellipse cx="392" cy="430" rx="7" ry="63" fill="#5D855C"/>
<ellipse cx="418.509" cy="426.183" rx="7.38309" ry="62.7562" transform="rotate(-6.52063 418.509 426.183)" fill="#87AF86"/>
<ellipse cx="367.501" cy="418.59" rx="7.38309" ry="62.7562" transform="rotate(2.02699 367.501 418.59)" fill="#87AF86"/>
<ellipse cx="398.816" cy="297.119" rx="7.38309" ry="67.8321" transform="rotate(179.077 398.816 297.119)" fill="#87AF86"/>
<ellipse cx="421.044" cy="301.837" rx="7.38309" ry="62.7562" transform="rotate(179.077 421.044 301.837)" fill="#87AF86"/>
<ellipse cx="352.535" cy="302.656" rx="7.38309" ry="67.8321" transform="rotate(179.077 352.535 302.656)" fill="#87AF86"/>
<ellipse cx="376.751" cy="302.551" rx="7.38309" ry="62.7562" transform="rotate(172.556 376.751 302.551)" fill="#87AF86"/>
<ellipse cx="300.771" cy="302.195" rx="7.38309" ry="62.7562" transform="rotate(179.077 300.771 302.195)" fill="#87AF86"/>
<ellipse cx="276.451" cy="302.512" rx="7.38309" ry="62.7562" transform="rotate(172.556 276.451 302.512)" fill="#87AF86"/>
<ellipse cx="324.964" cy="302.215" rx="7.38309" ry="62.7562" transform="rotate(-178.896 324.964 302.215)" fill="#5D855C"/>
<ellipse cx="905.889" cy="464.928" rx="20" ry="19" transform="rotate(179.326 905.889 464.928)" fill="#FF634E"/>
<ellipse cx="817.06" cy="394.968" rx="20" ry="19" transform="rotate(179.326 817.06 394.968)" fill="#FF634E"/>
<ellipse cx="796.038" cy="308.209" rx="20" ry="19" transform="rotate(179.326 796.038 308.209)" fill="#FF634E"/>
<ellipse cx="892.643" cy="189.064" rx="20" ry="19" transform="rotate(179.326 892.643 189.064)" fill="#FF634E"/>
<ellipse cx="891.125" cy="315.091" rx="26" ry="27" transform="rotate(179.326 891.125 315.091)" fill="#FF634E"/>
<ellipse cx="824.801" cy="457.881" rx="26" ry="27" transform="rotate(179.326 824.801 457.881)" fill="#FF634E"/>
<ellipse cx="802.131" cy="146.126" rx="26" ry="27" transform="rotate(179.326 802.131 146.126)" fill="#FF634E"/>
<ellipse cx="829.188" cy="235.814" rx="26" ry="27" transform="rotate(179.326 829.188 235.814)" fill="#FF634E"/>
<ellipse cx="818.779" cy="131.752" rx="20" ry="19" transform="rotate(7.81977 818.779 131.752)" fill="#FF4D26"/>
<ellipse cx="890.47" cy="224.347" rx="20" ry="19" transform="rotate(7.81977 890.47 224.347)" fill="#FF4D26"/>
<ellipse cx="891.259" cy="291.342" rx="20" ry="19" transform="rotate(7.81977 891.259 291.342)" fill="#FF4D26"/>
<ellipse cx="796.701" cy="414.463" rx="20" ry="19" transform="rotate(7.81977 796.701 414.463)" fill="#FF4D26"/>
<ellipse cx="817.974" cy="277.405" rx="26" ry="27" transform="rotate(7.81977 817.974 277.405)" fill="#FF4D26"/>
<ellipse cx="897.937" cy="150.699" rx="26" ry="27" transform="rotate(7.81977 897.937 150.699)" fill="#FF4D26"/>
<ellipse cx="868.936" cy="443.817" rx="26" ry="27" transform="rotate(7.81977 868.936 443.817)" fill="#FF4D26"/>
<ellipse cx="822.182" cy="256.932" rx="20" ry="19" transform="rotate(-111.744 822.182 256.932)" fill="#FF3D00"/>
<ellipse cx="797.747" cy="191.688" rx="20" ry="19" transform="rotate(-111.744 797.747 191.688)" fill="#FF3D00"/>
<ellipse cx="849.946" cy="348.136" rx="26" ry="27" transform="rotate(-111.744 849.946 348.136)" fill="#FF3D00"/>
<ellipse cx="787.688" cy="327.588" rx="26" ry="27" transform="rotate(-111.744 787.688 327.588)" fill="#FF3D00"/>
<ellipse cx="847.986" cy="179.621" rx="26" ry="27" transform="rotate(-111.744 847.986 179.621)" fill="#FF3D00"/>
<ellipse cx="864.985" cy="264.427" rx="26" ry="27" transform="rotate(-111.744 864.985 264.427)" fill="#FF3D00"/>
<ellipse cx="816.679" cy="363.715" rx="26" ry="27" transform="rotate(76.7496 816.679 363.715)" fill="#FFAA9E"/>
<ellipse cx="889.24" cy="384.574" rx="26" ry="27" transform="rotate(7.81977 889.24 384.574)" fill="#FF4D26"/>
<path d="M789 132L790.572 138.564H795.657L791.543 142.621L793.114 149.186L789 145.129L784.886 149.186L786.457 142.621L782.343 138.564H787.428L789 132Z" fill="#5D855C"/>
<path d="M869.687 242.624L874.661 247.187L878.877 244.343L877.735 250.008L882.709 254.57L877.029 253.508L875.887 259.172L873.519 252.852L867.839 251.789L872.055 248.945L869.687 242.624Z" fill="#5D855C"/>
<path d="M800.727 375.332L807.261 377.025L809.648 372.534L811.299 378.071L817.833 379.764L812.32 381.493L813.971 387.031L808.912 382.562L803.399 384.291L805.786 379.8L800.727 375.332Z" fill="#5D855C"/>
<path d="M883.739 436.186L885.949 442.564L891.01 442.063L887.315 446.505L889.525 452.883L885.031 449.251L881.336 453.693L882.254 447.006L877.76 443.373L882.821 442.873L883.739 436.186Z" fill="#5D855C"/>
<ellipse cx="1026.19" cy="108.043" rx="8.93617" ry="10.0426" fill="#5D855C"/>
<ellipse cx="1039.89" cy="117.457" rx="13.1064" ry="13.1809" fill="#5D855C"/>
<ellipse cx="1039.89" cy="131.266" rx="13.1064" ry="13.1809" fill="#5D855C"/>
<ellipse cx="1030.36" cy="143.819" rx="13.1064" ry="13.1809" fill="#5D855C"/>
<ellipse cx="1022.02" cy="127.5" rx="13.1064" ry="13.1809" fill="#5D855C"/>
<ellipse cx="1013.68" cy="117.457" rx="13.1064" ry="13.1809" fill="#5D855C"/>
<rect width="23.7753" height="11.1695" transform="matrix(0.867833 -0.496856 0.458399 0.888746 997 137.43)" fill="#87AF86"/>
<ellipse cx="1024.19" cy="365.043" rx="8.93617" ry="10.0426" fill="#5D855C"/>
<ellipse cx="1037.89" cy="374.457" rx="13.1064" ry="13.1809" fill="#5D855C"/>
<ellipse cx="1037.89" cy="388.266" rx="13.1064" ry="13.1809" fill="#5D855C"/>
<ellipse cx="1028.36" cy="400.819" rx="13.1064" ry="13.1809" fill="#5D855C"/>
<ellipse cx="1020.02" cy="384.5" rx="13.1064" ry="13.1809" fill="#5D855C"/>
<ellipse cx="1011.68" cy="374.457" rx="13.1064" ry="13.1809" fill="#5D855C"/>
<rect width="23.7753" height="11.1695" transform="matrix(0.867833 -0.496856 0.458399 0.888746 995 394.43)" fill="#87AF86"/>
<ellipse cx="1029.95" cy="73.6188" rx="8.93617" ry="10.0426" transform="rotate(-100.948 1029.95 73.6188)" fill="#5D855C"/>
<ellipse cx="1036.59" cy="58.3779" rx="13.1064" ry="13.1809" transform="rotate(-100.948 1036.59 58.3779)" fill="#5D855C"/>
<ellipse cx="1050.15" cy="55.7553" rx="13.1064" ry="13.1809" transform="rotate(-100.948 1050.15 55.7553)" fill="#5D855C"/>
<ellipse cx="1064.28" cy="62.7296" rx="13.1064" ry="13.1809" transform="rotate(-100.948 1064.28 62.7296)" fill="#5D855C"/>
<ellipse cx="1049.85" cy="74.0176" rx="13.1064" ry="13.1809" transform="rotate(-100.948 1049.85 74.0176)" fill="#5D855C"/>
<ellipse cx="1041.57" cy="84.1136" rx="13.1064" ry="13.1809" transform="rotate(-100.948 1041.57 84.1136)" fill="#5D855C"/>
<rect width="23.7753" height="11.1695" transform="matrix(-0.652636 -0.757672 0.785508 -0.618851 1064.35 96.6975)" fill="#87AF86"/>
<ellipse cx="1104.14" cy="143.903" rx="8.93617" ry="10.0426" transform="rotate(85.3977 1104.14 143.903)" fill="#5D855C"/>
<ellipse cx="1095.86" cy="158.317" rx="13.1064" ry="13.1809" transform="rotate(85.3977 1095.86 158.317)" fill="#5D855C"/>
<ellipse cx="1082.09" cy="159.425" rx="13.1064" ry="13.1809" transform="rotate(85.3977 1082.09 159.425)" fill="#5D855C"/>
<ellipse cx="1068.82" cy="150.931" rx="13.1064" ry="13.1809" transform="rotate(85.3977 1068.82 150.931)" fill="#5D855C"/>
<ellipse cx="1084.41" cy="141.308" rx="13.1064" ry="13.1809" transform="rotate(85.3977 1084.41 141.308)" fill="#5D855C"/>
<ellipse cx="1093.75" cy="132.188" rx="13.1064" ry="13.1809" transform="rotate(85.3977 1093.75 132.188)" fill="#5D855C"/>
<rect width="23.7753" height="11.1695" transform="matrix(0.564888 0.825167 -0.849099 0.528234 1072.51 117.164)" fill="#87AF86"/>
<ellipse cx="1080.14" cy="331.903" rx="8.93617" ry="10.0426" transform="rotate(85.3977 1080.14 331.903)" fill="#5D855C"/>
<ellipse cx="1071.86" cy="346.317" rx="13.1064" ry="13.1809" transform="rotate(85.3977 1071.86 346.317)" fill="#5D855C"/>
<ellipse cx="1058.09" cy="347.425" rx="13.1064" ry="13.1809" transform="rotate(85.3977 1058.09 347.425)" fill="#5D855C"/>
<ellipse cx="1044.82" cy="338.931" rx="13.1064" ry="13.1809" transform="rotate(85.3977 1044.82 338.931)" fill="#5D855C"/>
<ellipse cx="1060.41" cy="329.308" rx="13.1064" ry="13.1809" transform="rotate(85.3977 1060.41 329.308)" fill="#5D855C"/>
<ellipse cx="1069.75" cy="320.188" rx="13.1064" ry="13.1809" transform="rotate(85.3977 1069.75 320.188)" fill="#5D855C"/>
<rect width="23.7753" height="11.1695" transform="matrix(0.564888 0.825167 -0.849099 0.528234 1048.51 305.164)" fill="#87AF86"/>
<ellipse cx="1023.92" cy="312.143" rx="8.93617" ry="10.0426" transform="rotate(-172.2 1023.92 312.143)" fill="#5D855C"/>
<ellipse cx="1011.63" cy="300.956" rx="13.1064" ry="13.1809" transform="rotate(-172.2 1011.63 300.956)" fill="#5D855C"/>
<ellipse cx="1013.5" cy="287.275" rx="13.1064" ry="13.1809" transform="rotate(-172.2 1013.5 287.275)" fill="#5D855C"/>
<ellipse cx="1024.65" cy="276.131" rx="13.1064" ry="13.1809" transform="rotate(-172.2 1024.65 276.131)" fill="#5D855C"/>
<ellipse cx="1030.7" cy="293.432" rx="13.1064" ry="13.1809" transform="rotate(-172.2 1030.7 293.432)" fill="#5D855C"/>
<ellipse cx="1037.6" cy="304.513" rx="13.1064" ry="13.1809" transform="rotate(-172.2 1037.6 304.513)" fill="#5D855C"/>
<rect width="23.7753" height="11.1695" transform="matrix(-0.927236 0.374476 -0.333537 -0.942737 1056.83 286.989)" fill="#87AF86"/>
<ellipse cx="1132.65" cy="202.539" rx="8.93617" ry="10.0426" transform="rotate(-174.659 1132.65 202.539)" fill="#5D855C"/>
<ellipse cx="1119.89" cy="191.89" rx="13.1064" ry="13.1809" transform="rotate(-174.659 1119.89 191.89)" fill="#5D855C"/>
<ellipse cx="1121.17" cy="178.141" rx="13.1064" ry="13.1809" transform="rotate(-174.659 1121.17 178.141)" fill="#5D855C"/>
<ellipse cx="1131.83" cy="166.529" rx="13.1064" ry="13.1809" transform="rotate(-174.659 1131.83 166.529)" fill="#5D855C"/>
<ellipse cx="1138.62" cy="183.554" rx="13.1064" ry="13.1809" transform="rotate(-174.659 1138.62 183.554)" fill="#5D855C"/>
<ellipse cx="1145.99" cy="194.329" rx="13.1064" ry="13.1809" transform="rotate(-174.659 1145.99 194.329)" fill="#5D855C"/>
<rect width="23.7753" height="11.1695" transform="matrix(-0.910311 0.413925 -0.373689 -0.927554 1164.45 175.996)" fill="#87AF86"/>
<ellipse cx="1142.35" cy="100.526" rx="8.93617" ry="10.0426" transform="rotate(-7.24632 1142.35 100.526)" fill="#5D855C"/>
<ellipse cx="1157.13" cy="108.137" rx="13.1064" ry="13.1809" transform="rotate(-7.24632 1157.13 108.137)" fill="#5D855C"/>
<ellipse cx="1158.87" cy="121.835" rx="13.1064" ry="13.1809" transform="rotate(-7.24632 1158.87 121.835)" fill="#5D855C"/>
<ellipse cx="1151" cy="135.491" rx="13.1064" ry="13.1809" transform="rotate(-7.24632 1151 135.491)" fill="#5D855C"/>
<ellipse cx="1140.67" cy="120.354" rx="13.1064" ry="13.1809" transform="rotate(-7.24632 1140.67 120.354)" fill="#5D855C"/>
<ellipse cx="1131.13" cy="111.443" rx="13.1064" ry="13.1809" transform="rotate(-7.24632 1131.13 111.443)" fill="#5D855C"/>
<rect width="23.7753" height="11.1695" transform="matrix(0.798231 -0.602352 0.56684 0.823828 1117.1 133.36)" fill="#87AF86"/>
<ellipse cx="1074.68" cy="191.643" rx="14.8814" ry="16.2668" transform="rotate(24.0158 1074.68 191.643)" fill="#5D855C"/>
<ellipse cx="1089.31" cy="214.86" rx="21.826" ry="21.3501" transform="rotate(24.0158 1089.31 214.86)" fill="#5D855C"/>
<ellipse cx="1080.21" cy="235.291" rx="21.826" ry="21.3501" transform="rotate(24.0158 1080.21 235.291)" fill="#5D855C"/>
<ellipse cx="1057.44" cy="247.404" rx="21.826" ry="21.3501" transform="rotate(24.0158 1057.44 247.404)" fill="#5D855C"/>
<ellipse cx="1055.51" cy="217.606" rx="21.826" ry="21.3501" transform="rotate(24.0158 1055.51 217.606)" fill="#5D855C"/>
<ellipse cx="1049.44" cy="197.094" rx="21.826" ry="21.3501" transform="rotate(24.0158 1049.44 197.094)" fill="#5D855C"/>
<rect width="39.3286" height="18.2002" transform="matrix(0.996046 -0.0888348 0.0683644 0.997661 1010.9 215.339)" fill="#87AF86"/>
<ellipse cx="1163.52" cy="363.012" rx="14.8814" ry="16.2668" transform="rotate(88.5377 1163.52 363.012)" fill="#5D855C"/>
<ellipse cx="1148.85" cy="386.212" rx="21.826" ry="21.3501" transform="rotate(88.5377 1148.85 386.212)" fill="#5D855C"/>
<ellipse cx="1126.49" cy="386.783" rx="21.826" ry="21.3501" transform="rotate(88.5377 1126.49 386.783)" fill="#5D855C"/>
<ellipse cx="1105.76" cy="371.433" rx="21.826" ry="21.3501" transform="rotate(88.5377 1105.76 371.433)" fill="#5D855C"/>
<ellipse cx="1131.83" cy="356.874" rx="21.826" ry="21.3501" transform="rotate(88.5377 1131.83 356.874)" fill="#5D855C"/>
<ellipse cx="1147.74" cy="342.574" rx="21.826" ry="21.3501" transform="rotate(88.5377 1147.74 342.574)" fill="#5D855C"/>
<rect width="39.3286" height="18.2002" transform="matrix(0.508662 0.860966 -0.871229 0.490876 1114.69 315.63)" fill="#87AF86"/>
<ellipse cx="1119.47" cy="302.091" rx="12.4651" ry="12.6955" transform="rotate(-159.399 1119.47 302.091)" fill="#5D855C"/>
<ellipse cx="1105.77" cy="284.225" rx="18.2822" ry="16.6628" transform="rotate(-159.399 1105.77 284.225)" fill="#5D855C"/>
<ellipse cx="1111.91" cy="267.885" rx="18.2822" ry="16.6628" transform="rotate(-159.399 1111.91 267.885)" fill="#5D855C"/>
<ellipse cx="1129.94" cy="257.709" rx="18.2822" ry="16.6628" transform="rotate(-159.399 1129.94 257.709)" fill="#5D855C"/>
<ellipse cx="1133.57" cy="281.113" rx="18.2822" ry="16.6628" transform="rotate(-159.399 1133.57 281.113)" fill="#5D855C"/>
<ellipse cx="1139.99" cy="297.09" rx="18.2822" ry="16.6628" transform="rotate(-159.399 1139.99 297.09)" fill="#5D855C"/>
<rect width="32.4247" height="14.4393" transform="matrix(-0.99292 0.118782 -0.157188 -0.987569 1170.66 281.644)" fill="#87AF86"/>
<ellipse cx="1095.47" cy="64.1354" rx="12.2714" ry="13.8559" transform="rotate(-117.89 1095.47 64.1354)" fill="#5D855C"/>
<ellipse cx="1098.15" cy="41.4285" rx="17.998" ry="18.1859" transform="rotate(-117.89 1098.15 41.4285)" fill="#5D855C"/>
<ellipse cx="1114.99" cy="32.5164" rx="17.998" ry="18.1859" transform="rotate(-117.89 1114.99 32.5164)" fill="#5D855C"/>
<ellipse cx="1136.42" cy="35.9835" rx="17.998" ry="18.1859" transform="rotate(-117.89 1136.42 35.9835)" fill="#5D855C"/>
<ellipse cx="1121.87" cy="56.6389" rx="17.998" ry="18.1859" transform="rotate(-117.89 1121.87 56.6389)" fill="#5D855C"/>
<ellipse cx="1114.98" cy="73.2434" rx="17.998" ry="18.1859" transform="rotate(-117.89 1114.98 73.2434)" fill="#5D855C"/>
<rect width="32.687" height="15.3956" transform="matrix(-0.846186 -0.532887 0.572659 -0.819794 1150.06 80.5988)" fill="#87AF86"/>
<ellipse cx="544.769" cy="46.108" rx="19.7057" ry="33.3375" transform="rotate(-88.9769 544.769 46.108)" fill="#FF7A30"/>
<path d="M608.695 37.7679C616.033 39.2625 616.358 49.644 609.122 51.4211L556.835 64.262C552.491 65.3289 548.23 62.0832 548.09 57.6008L547.35 33.9599C547.21 29.4774 551.263 26.0706 555.669 26.9679L608.695 37.7679Z" fill="#FF7A30"/>
<ellipse cx="643.253" cy="65.4411" rx="19.7057" ry="33.3375" transform="rotate(69.9186 643.253 65.4411)" fill="#FF7A30"/>
<path d="M586.618 96.2394C579.234 97.4873 575.193 87.919 581.304 83.6557L625.46 52.8492C629.129 50.2897 634.273 51.7833 636.017 55.9146L645.219 77.7037C646.964 81.835 644.409 86.4728 639.976 87.222L586.618 96.2394Z" fill="#FF7A30"/>
<ellipse cx="568.337" cy="124.666" rx="19.7057" ry="33.3375" transform="rotate(132.286 568.337 124.666)" fill="#FF7A30"/>
<path d="M515.732 90.5865C511.202 84.6233 517.805 76.6056 524.416 80.042L572.188 104.874C576.157 106.937 577.22 112.187 574.369 115.649L559.333 133.907C556.482 137.369 551.188 137.256 548.468 133.676L515.732 90.5865Z" fill="#FF7A30"/>
<ellipse cx="650.95" cy="129.368" rx="19.7057" ry="33.3375" transform="rotate(2.56327 650.95 129.368)" fill="#FF7A30"/>
<path d="M658.356 191.607C656.664 198.903 646.278 198.948 644.696 191.667L633.265 139.054C632.315 134.683 635.674 130.511 640.159 130.491L663.811 130.388C668.296 130.368 671.592 134.511 670.577 138.891L658.356 191.607Z" fill="#FF7A30"/>
<ellipse cx="616.255" cy="206" rx="19.7057" ry="33.3375" transform="rotate(179.366 616.255 206)" fill="#FF7A30"/>
<path d="M605.389 144.27C606.671 136.892 617.038 136.267 619.024 143.449L633.372 195.342C634.564 199.653 631.443 204.007 626.966 204.276L603.356 205.699C598.88 205.969 595.357 202.016 596.127 197.586L605.389 144.27Z" fill="#FF7A30"/>
<ellipse cx="533.151" cy="172.422" rx="19.7057" ry="33.3375" transform="rotate(-26.4789 533.151 172.422)" fill="#FF7A30"/>
<path d="M569.84 223.241C571.903 230.44 562.844 235.522 557.927 229.924L522.392 189.476C519.44 186.116 520.351 180.837 524.262 178.643L544.89 167.07C548.801 164.876 553.695 166.898 554.933 171.22L569.84 223.241Z" fill="#FF7A30"/>
<ellipse cx="541.769" cy="260.108" rx="19.7057" ry="33.3375" transform="rotate(-88.9769 541.769 260.108)" fill="#FF7A30"/>
<path d="M605.695 251.768C613.033 253.262 613.358 263.644 606.122 265.421L553.835 278.262C549.491 279.329 545.23 276.083 545.09 271.601L544.35 247.96C544.21 243.477 548.263 240.071 552.669 240.968L605.695 251.768Z" fill="#FF7A30"/>
<ellipse cx="640.253" cy="279.441" rx="19.7057" ry="33.3375" transform="rotate(69.9186 640.253 279.441)" fill="#FF7A30"/>
<path d="M583.618 310.239C576.234 311.487 572.193 301.919 578.304 297.656L622.46 266.849C626.129 264.29 631.273 265.783 633.017 269.915L642.219 291.704C643.964 295.835 641.409 300.473 636.976 301.222L583.618 310.239Z" fill="#FF7A30"/>
<ellipse cx="565.337" cy="338.666" rx="19.7057" ry="33.3375" transform="rotate(132.286 565.337 338.666)" fill="#FF7A30"/>
<path d="M512.732 304.586C508.202 298.623 514.805 290.606 521.416 294.042L569.188 318.874C573.157 320.937 574.22 326.187 571.369 329.649L556.333 347.907C553.482 351.369 548.188 351.256 545.468 347.676L512.732 304.586Z" fill="#FF7A30"/>
<ellipse cx="647.95" cy="343.368" rx="19.7057" ry="33.3375" transform="rotate(2.56327 647.95 343.368)" fill="#FF7A30"/>
<path d="M655.356 405.607C653.664 412.903 643.278 412.948 641.696 405.667L630.265 353.054C629.315 348.683 632.674 344.511 637.159 344.491L660.811 344.388C665.296 344.368 668.592 348.511 667.577 352.891L655.356 405.607Z" fill="#FF7A30"/>
<ellipse cx="551.548" cy="393.411" rx="19.7057" ry="33.3375" transform="rotate(-84.2622 551.548 393.411)" fill="#FF7A30"/>
<path d="M614.102 389.463C621.293 391.555 620.763 401.928 613.406 403.105L560.241 411.605C555.823 412.311 551.843 408.726 552.072 404.247L553.279 380.625C553.507 376.147 557.827 373.085 562.144 374.341L614.102 389.463Z" fill="#FF7A30"/>
<ellipse cx="508.5" cy="45" rx="7.5" ry="10" fill="#5D855C"/>
<ellipse cx="619.5" cy="239" rx="7.5" ry="10" transform="rotate(87.8697 619.5 239)" fill="#5D855C"/>
<ellipse cx="519.775" cy="393.204" rx="7.5" ry="10" transform="rotate(178.409 519.775 393.204)" fill="#5D855C"/>
</svg>
